<svg xmlns="http://www.w3.org/2000/svg" fill="none" viewBox="0 0 1000 1000"><g clip-path="url(#a)"><path fill="#000" d="M348.42 642.85c2.3-11.45 4.5-22.9 6.8-34.35 4-19.55 8-39.1 12-58.65 3.5-16.1 7-32.2 10.5-48.3 2.1-9.95 4.1-19.9 6.2-29.85.9-4.25 1.8-8.5 2.7-12.75.9-4.15 1.8-8.3 2.7-12.45.6-2.5.9-5 .9-7.5v-10.3h106.3v10.3c0 9.7-1.4 19.3-4.1 28.6-4.9 16.5-10.8 32.7-17.7 48.3-6.1 13.7-12.8 27.1-20.2 40-5.6 9.6-11.8 18.9-18.4 27.8-1.5 1.9-2.9 3.8-4.4 5.7-4.1 5.3-8.2 10.5-12.3 15.8-2 .9-2 .9-1.1-1.3Z"/><path fill="#000" d="M466.82 436.55c.7-3.45 1.4-6.9 2.1-10.35 2.5-13.8 5-27.6 7.6-41.4 1.4-7.55 2.8-15.1 4.2-22.65 2.5-13.6 5-27.2 7.5-40.8.2-1.35.5-2.7.7-4.05.7-3.75 1.3-7.5 2-11.25.2-1.25.4-2.5.6-3.75.2-1.35.4-2.7.6-4.05.2-1.25.3-2.5.3-3.75v-8.4h95.6v8.4c0 7.8-1 15.5-2.9 23-4.2 16.7-9.5 33.1-16.1 48.9-5.1 12-10.9 23.7-17.5 35-5.3 9.1-11.2 17.8-17.8 26.1-3.1 3.9-6.3 7.7-9.5 11.5-2.7 3.2-5.5 6.4-8.2 9.6-.8.9-1.5 1.9-2.3 2.8-2.6 3.1-5.3 6.3-7.9 9.4-1.2 1.4-2.4 2.8-3.6 4.2-1 .9-1 .9-.2-1.1Z"/><path fill="#000" d="M1000 827.4c-13.3-10-26.6-20-40-30-80.6-62.2-161.3-124.4-241.9-186.6-11.5-8.9-23-17.7-34.5-26.6-11-8.5-22-17-33-25.5-13.3-10.2-26.6-20.4-40-30.6-26.7-20.5-53.5-41-80.2-61.5-13.4-10.2-26.7-20.5-40.1-30.7-13.4-10.2-26.8-20.4-40.2-30.6-13.4-10.2-26.8-20.4-40.2-30.6-13.4-10.2-26.8-20.5-40.2-30.7-13.4-10.2-26.8-20.4-40.2-30.6-13.4-10.2-26.8-20.4-40.2-30.6-26.8-20.5-53.6-41-80.4-61.5-13.4-10.2-26.8-20.4-40.2-30.6-13.4-10.2-26.8-20.4-40.2-30.6-13.4-10.2-26.8-20.5-40.2-30.7-13.4-10.2-26.8-20.4-40.2-30.6C0 128.8 0 128.8 0 129c13.3 10.1 26.6 20.2 40 30.4 13.3 10.1 26.6 20.2 40 30.4 13.3 10.1 26.6 20.2 40 30.4 26.6 20.2 53.2 40.5 79.9 60.7 13.3 10.1 26.6 20.2 40 30.4 13.3 10.1 26.6 20.2 40 30.4 13.3 10.1 26.6 20.2 40 30.4 13.3 10.1 26.6 20.2 40 30.4 13.3 10.1 26.6 20.2 40 30.4 13.3 10.1 26.6 20.2 40 30.4 26.6 20.2 53.2 40.5 79.9 60.7 13.3 10.1 26.6 20.2 40 30.4 13.3 10.1 26.6 20.2 40 30.4 13.3 10.1 26.6 20.2 40 30.4 13.3 10.1 26.6 20.2 40 30.4 13.3 10.1 26.6 20.2 40 30.4 13.3 10.1 26.6 20.2 40 30.4 13.3 10.1 26.6 20.2 40 30.4 26.6 20.2 53.2 40.5 79.9 60.7 13.3 10.1 26.6 20.2 40 30.4 13.3 10.1 26.6 20.2 40 30.4C973.4 817.1 986.7 827.4 1000 837.6v-10.2Z"/><path fill="#fff" d="M685.22 871V333h-97.3v395.7c-26.6 20.2-53.2 40.4-79.8 60.6-13.3 10.1-26.6 20.3-40 30.4v-527h-94.2v567.8c-13.3-10.1-26.6-20.2-40-30.4-13.3-10.1-26.6-20.2-40-30.4-13.3-10.1-26.6-20.2-40-30.4-26.6-20.2-53.2-40.5-79.9-60.7-13.3-10.1-26.6-20.2-40-30.4-13.3-10.1-26.6-20.2-40-30.4-13.3-10.1-26.6-20.2-40-30.4-13.3-10.1-26.6-20.2-40-30.4C0 417 0 417 0 417.2c13.3 10.1 26.6 20.2 40 30.4 13.3 10.1 26.6 20.2 40 30.4 13.3 10.1 26.6 20.2 40 30.4 26.6 20.2 53.2 40.5 79.9 60.7 13.3 10.1 26.6 20.2 40 30.4 13.3 10.1 26.6 20.2 40 30.4 13.3 10.1 26.6 20.2 40 30.4 13.3 10.1 26.6 20.2 40 30.4 13.3 10.1 26.6 20.2 40 30.4 13.3 10.1 26.6 20.2 40 30.4 26.6 20.2 53.2 40.5 79.9 60.7 13.3 10.1 26.6 20.2 40 30.4 13.3 10.1 26.6 20.2 40 30.4V333h-94.2v538Z"/><path fill="#fff" d="M904.32 871V333h-95.6v538h95.6Z"/></g><defs><clipPath id="a"><path fill="#fff" d="M0 0h1000v1000H0z"/></clipPath></defs></svg>