<svg xmlns="http://www.w3.org/2000/svg" fill="none" viewBox="0 0 180 180"><mask id="a" width="180" height="180" x="0" y="0" maskUnits="userSpaceOnUse" style="mask-type:alpha"><circle cx="90" cy="90" r="90" fill="#fff"/></mask><g mask="url(#a)"><path fill="#000" d="M129.75 45H50.25v90h79.5V45Z"/><path fill="url(#b)" d="M129.75 45H50.25v90h79.5V45Z"/><path fill="url(#c)" d="M129.75 45H50.25v90h79.5V45Z"/><path fill="#fff" fill-rule="evenodd" d="M90.001 59.575c-15.023 0-27.2 12.176-27.2 27.2s12.177 27.2 27.2 27.2c7.512 0 14.303-3.052 19.233-8.006V86.775h14.544c-.78 21.517-18.736 38.4-40.253 38.4-22.759 0-41.2-18.441-41.2-41.2 0-22.758 18.441-41.2 41.2-41.2s41.2 18.442 41.2 41.2h-15.023c0-15.024-12.178-27.2-27.201-27.2Z" clip-rule="evenodd"/><path fill="#fff" d="m89.317 125.175 11.233-22.1h-10.45l-11.25 22.1h10.467Z"/></g><defs><linearGradient id="b" x1="129.75" x2="50.25" y1="45" y2="135" gradientUnits="userSpaceOnUse"><stop stop-color="#fff"/><stop offset="1" stop-color="#fff" stop-opacity="0"/></linearGradient><radialGradient id="c" cx="0" cy="0" r="1" gradientTransform="matrix(0 90 -90 0 90 90)" gradientUnits="userSpaceOnUse"><stop offset=".162" stop-color="#fff"/><stop offset=".563" stop-color="#fff" stop-opacity="0"/></radialGradient></defs></svg>
